{
  "accessors": [
    {
      "bufferView": 2,
      "componentType": 5126,
      "count": 20102,
      "max": [
        1.000000238418579,
        1.000000238418579,
        1.0000003576278687
      ],
      "min": [
        -1.000000238418579,
        -1.0000003576278687,
        -1.000000238418579
      ],
      "type": "VEC3"
    },
    {
      "bufferView": 2,
      "byteOffset": 241224,
      "componentType": 5126,
      "count": 20102,
      "max": [
        1.0,
        1.0,
        1.0
      ],
      "min": [
        -1.0,
        -1.0,
        -1.0
      ],
      "type": "VEC3"
    },
    {
      "bufferView": 1,
      "componentType": 5126,
      "count": 20102,
      "max": [
        0.8750001192092896,
        1.0000001192092896
      ],
      "min": [
        0.125,
        0.0
      ],
      "type": "VEC2"
    },
    {
      "bufferView": 1,
      "byteOffset": 160816,
      "componentType": 5126,
      "count": 20102,
      "max": [
        1.5691649913787842,
        1.5922197103500366
      ],
      "min": [
        -0.4538903534412384,
        -0.43083542585372925
      ],
      "type": "VEC2"
    },
    {
      "bufferView": 0,
      "componentType": 5125,
      "count": 104832,
      "type": "SCALAR"
    },
    {
      "bufferView": 2,
      "byteOffset": 482448,
      "componentType": 5126,
      "count": 8505,
      "max": [
        0.9872747659683228,
        0.9872747659683228,
        0.9872747659683228
      ],
      "min": [
        -0.9872747659683228,
        -0.9872747659683228,
        -0.9872747659683228
      ],
      "type": "VEC3"
    },
    {
      "bufferView": 2,
      "byteOffset": 584508,
      "componentType": 5126,
      "count": 8505,
      "max": [
        1.0,
        1.0,
        1.0
      ],
      "min": [
        -1.0,
        -1.0,
        -1.0
      ],
      "type": "VEC3"
    },
    {
      "bufferView": 1,
      "byteOffset": 321632,
      "componentType": 5126,
      "count": 8505,
      "max": [
        0.7681280374526978,
        0.9439262747764587
      ],
      "min": [
        0.18187202513217926,
        0.05687202140688896
      ],
      "type": "VEC2"
    },
    {
      "bufferView": 1,
      "byteOffset": 389672,
      "componentType": 5126,
      "count": 8505,
      "max": [
        1.5691649913787842,
        1.5922197103500366
      ],
      "min": [
        -0.4538903534412384,
        -0.43083542585372925
      ],
      "type": "VEC2"
    },
    {
      "bufferView": 0,
      "byteOffset": 419328,
      "componentType": 5125,
      "count": 40320,
      "type": "SCALAR"
    }
  ],
  "asset": {
    "extras": {
      "author": "Rosa studio (https://sketchfab.com/Rosastudio)",
      "license": "CC-BY-4.0 (http://creativecommons.org/licenses/by/4.0/)",
      "source": "https://sketchfab.com/3d-models/dice-fe79e88a59244d27b075344e9a3db842",
      "title": "Dice"
    },
    "generator": "Sketchfab-16.12.0",
    "version": "2.0"
  },
  "bufferViews": [
    {
      "buffer": 0,
      "byteLength": 580608,
      "name": "floatBufferViews",
      "target": 34963
    },
    {
      "buffer": 0,
      "byteLength": 457712,
      "byteOffset": 580608,
      "byteStride": 8,
      "name": "floatBufferViews",
      "target": 34962
    },
    {
      "buffer": 0,
      "byteLength": 686568,
      "byteOffset": 1038320,
      "byteStride": 12,
      "name": "floatBufferViews",
      "target": 34962
    }
  ],
  "buffers": [
    {
      "byteLength": 1724888,
      "uri": "scene.bin"
    }
  ],
  "extensionsUsed": [
    "KHR_materials_clearcoat",
    "KHR_materials_specular"
  ],
  "materials": [
    {
      "doubleSided": true,
      "extensions": {
        "KHR_materials_clearcoat": {
          "clearcoatFactor": 1.0,
          "clearcoatRoughnessFactor": 0.04
        },
        "KHR_materials_specular": {
          "specularColorFactor": [
            1.0,
            1.0,
            1.0
          ],
          "specularFactor": 0.7055259596981628
        }
      },
      "name": "Blood_Glass"
    },
    {
      "doubleSided": true,
      "name": "Material.001",
      "pbrMetallicRoughness": {
        "baseColorFactor": [
          0.0,
          0.0,
          0.0,
          1.0
        ],
        "metallicFactor": 0.0,
        "roughnessFactor": 0.5
      }
    }
  ],
  "meshes": [
    {
      "name": "Object_0",
      "primitives": [
        {
          "attributes": {
            "NORMAL": 1,
            "POSITION": 0,
            "TEXCOORD_0": 2,
            "TEXCOORD_1": 3
          },
          "indices": 4,
          "material": 0,
          "mode": 4
        }
      ]
    },
    {
      "name": "Object_1",
      "primitives": [
        {
          "attributes": {
            "NORMAL": 6,
            "POSITION": 5,
            "TEXCOORD_0": 7,
            "TEXCOORD_1": 8
          },
          "indices": 9,
          "material": 1,
          "mode": 4
        }
      ]
    }
  ],
  "nodes": [
    {
      "children": [
        1
      ],
      "matrix": [
        0.006105291657149792,
        0.0,
        0.0,
        0.0,
        0.0,
        1.5677006900258925e-06,
        -0.006105291293246051,
        0.0,
        0.0,
        0.006105291293246051,
        1.5677006900258925e-06,
        0.0,
        0.0,
        0.0,
        0.0,
        1.0
      ],
      "name": "Sketchfab_model"
    },
    {
      "children": [
        2
      ],
      "name": "root"
    },
    {
      "children": [
        3
      ],
      "matrix": [
        1.0,
        0.0,
        0.0,
        0.0,
        0.0,
        2.220446049250313e-16,
        1.0,
        0.0,
        0.0,
        -1.0,
        2.220446049250313e-16,
        0.0,
        0.0,
        0.0,
        0.0,
        1.0
      ],
      "name": "GLTF_SceneRootNode"
    },
    {
      "children": [
        4,
        5
      ],
      "name": "Cube_0"
    },
    {
      "mesh": 0,
      "name": "Object_4"
    },
    {
      "mesh": 1,
      "name": "Object_5"
    }
  ],
  "scene": 0,
  "scenes": [
    {
      "name": "Sketchfab_Scene",
      "nodes": [
        0
      ]
    }
  ]
}
